<?xml version="1.0" encoding="UTF-8" standalone="no"?>
<!-- Created with Inkscape (http://www.inkscape.org/) -->

<svg
   width="210mm"
   height="297mm"
   viewBox="0 0 210 297"
   version="1.1"
   id="svg1"
   xmlns="http://www.w3.org/2000/svg"
   xmlns:svg="http://www.w3.org/2000/svg">
  <defs
     id="defs1" />
  <g
     id="layer1">
    <g
       id="g10"
       style="display:inline;fill:#000000"
       transform="matrix(0.56923179,0,0,0.53003323,-275.11716,-61.565277)">
      <path
         id="path1"
         style="display:inline;fill:#000000"
         d="m 579.74219,340.30078 -38.79297,9.48438 v 98.92187 l 38.79297,7.54297 z m -29.47461,9.6211 h 20.49023 c 0.831,0 1.5,0.66899 1.5,1.5 v 11.65624 c 0,0.83101 -0.669,1.5 -1.5,1.5 h -20.49023 c -0.831,0 -1.5,-0.66899 -1.5,-1.5 v -11.65624 c 0,-0.83101 0.669,-1.5 1.5,-1.5 z m 0.0859,25.26757 h 20.49218 c 0.831,0 1.5,0.669 1.5,1.5 v 11.65625 c 0,0.831 -0.669,1.5 -1.5,1.5 h -20.49218 c -0.831,0 -1.5,-0.669 -1.5,-1.5 v -11.65625 c 0,-0.831 0.669,-1.5 1.5,-1.5 z m -0.008,24.6211 h 20.49024 c 0.831,0 1.5,0.669 1.5,1.5 v 11.65429 c 0,0.831 -0.669,1.5 -1.5,1.5 H 550.3457 c -0.831,0 -1.5,-0.669 -1.5,-1.5 v -11.65429 c 0,-0.831 0.669,-1.5 1.5,-1.5 z m 0.1543,24.69726 h 20.49219 c 0.831,0 1.5,0.669 1.5,1.5 v 11.65625 c 0,0.831 -0.669,1.5 -1.5,1.5 H 550.5 c -0.831,0 -1.5,-0.669 -1.5,-1.5 v -11.65625 c 0,-0.831 0.669,-1.5 1.5,-1.5 z" />
      <path
         id="path2"
         style="display:inline;fill:#000000"
         d="m 792.48438,289.86914 -38.23633,8.98633 0.16406,192.48437 38.39844,7.84375 z m -28.73047,8.98633 h 20.04101 c 0.831,0 1.5,0.669 1.5,1.5 v 11.70703 c 0,0.831 -0.669,1.5 -1.5,1.5 h -20.04101 c -0.831,0 -1.5,-0.669 -1.5,-1.5 v -11.70703 c 0,-0.831 0.669,-1.5 1.5,-1.5 z m 0,25.16406 h 20.04101 c 0.831,0 1.5,0.669 1.5,1.5 v 11.54297 c 0,0.831 -0.669,1.5 -1.5,1.5 h -20.04101 c -0.831,0 -1.5,-0.669 -1.5,-1.5 v -11.54297 c 0,-0.831 0.669,-1.5 1.5,-1.5 z m 0,25.32617 h 20.04101 c 0.831,0 1.5,0.669 1.5,1.5 v 11.54297 c 0,0.831 -0.669,1.5 -1.5,1.5 h -20.04101 c -0.831,0 -1.5,-0.669 -1.5,-1.5 V 350.8457 c 0,-0.831 0.669,-1.5 1.5,-1.5 z m 0,25.16407 h 20.04101 c 0.831,0 1.5,0.669 1.5,1.5 v 11.70507 c 0,0.831 -0.669,1.5 -1.5,1.5 h -20.04101 c -0.831,0 -1.5,-0.669 -1.5,-1.5 v -11.70507 c 0,-0.831 0.669,-1.5 1.5,-1.5 z m 0,25.32617 h 20.04101 c 0.831,0 1.5,0.669 1.5,1.5 v 11.54297 c 0,0.831 -0.669,1.5 -1.5,1.5 h -20.04101 c -0.831,0 -1.5,-0.669 -1.5,-1.5 v -11.54297 c 0,-0.831 0.669,-1.5 1.5,-1.5 z m 0,25.16406 h 20.04101 c 0.831,0 1.5,0.669 1.5,1.5 v 11.37891 c 0,0.831 -0.669,1.5 -1.5,1.5 h -20.04101 c -0.831,0 -1.5,-0.669 -1.5,-1.5 V 426.5 c 0,-0.831 0.669,-1.5 1.5,-1.5 z m 0,25.16406 h 20.04101 c 0.831,0 1.5,0.669 1.5,1.5 v 11.54102 c 0,0.831 -0.669,1.5 -1.5,1.5 h -20.04101 c -0.831,0 -1.5,-0.669 -1.5,-1.5 v -11.54102 c 0,-0.831 0.669,-1.5 1.5,-1.5 z m 0,25.16211 h 20.04101 c 0.831,0 1.5,0.669 1.5,1.5 v 11.54297 c 0,0.831 -0.669,1.5 -1.5,1.5 h -20.04101 c -0.831,0 -1.5,-0.669 -1.5,-1.5 v -11.54297 c 0,-0.831 0.669,-1.5 1.5,-1.5 z" />
      <path
         style="fill:#000000"
         d="m 602.45098,334.64052 v 46.56863 c 0,0 0.4902,1.96078 2.28758,2.12418 1.79739,0.1634 124.30169,0.0722 124.30169,0.0722 0,0 2.5387,0.12384 2.60062,-2.35294 0.0619,-2.47678 0.12384,-76.78018 0.12384,-76.78018 z"
         id="path9" />
      <path
         style="fill:#000000"
         d="M 602.61307,461.20603 V 408.1407 c 0,0 0.80402,-2.21105 2.91457,-2.31155 2.11055,-0.10051 123.21608,0 123.21608,0 0,0 2.71357,-0.20101 2.81407,2.51256 0.1005,2.71357 0.1005,78.89447 0.1005,78.89447 z"
         id="path10" />
    </g>
  </g>
</svg>
