<?xml version="1.0" encoding="UTF-8" standalone="no"?>
<!-- Created with Inkscape (http://www.inkscape.org/) -->

<svg
   version="1.1"
   id="svg1"
   width="1344"
   height="768"
   viewBox="0 0 1344 768"
   xmlns="http://www.w3.org/2000/svg"
   xmlns:svg="http://www.w3.org/2000/svg">
  <defs
     id="defs1" />
  <g
     id="g10"
     style="display:inline;fill:#ffffff">
    <path
       id="path1"
       style="display:inline;fill:#ffffff"
       d="m 579.74219,340.30078 -38.79297,9.48438 v 98.92187 l 38.79297,7.54297 z m -29.47461,9.6211 h 20.49023 c 0.831,0 1.5,0.66899 1.5,1.5 v 11.65624 c 0,0.83101 -0.669,1.5 -1.5,1.5 h -20.49023 c -0.831,0 -1.5,-0.66899 -1.5,-1.5 v -11.65624 c 0,-0.83101 0.669,-1.5 1.5,-1.5 z m 0.0859,25.26757 h 20.49218 c 0.831,0 1.5,0.669 1.5,1.5 v 11.65625 c 0,0.831 -0.669,1.5 -1.5,1.5 h -20.49218 c -0.831,0 -1.5,-0.669 -1.5,-1.5 v -11.65625 c 0,-0.831 0.669,-1.5 1.5,-1.5 z m -0.008,24.6211 h 20.49024 c 0.831,0 1.5,0.669 1.5,1.5 v 11.65429 c 0,0.831 -0.669,1.5 -1.5,1.5 H 550.3457 c -0.831,0 -1.5,-0.669 -1.5,-1.5 v -11.65429 c 0,-0.831 0.669,-1.5 1.5,-1.5 z m 0.1543,24.69726 h 20.49219 c 0.831,0 1.5,0.669 1.5,1.5 v 11.65625 c 0,0.831 -0.669,1.5 -1.5,1.5 H 550.5 c -0.831,0 -1.5,-0.669 -1.5,-1.5 v -11.65625 c 0,-0.831 0.669,-1.5 1.5,-1.5 z" />
    <path
       id="path2"
       style="display:inline;fill:#ffffff"
       d="m 792.48438,289.86914 -38.23633,8.98633 0.16406,192.48437 38.39844,7.84375 z m -28.73047,8.98633 h 20.04101 c 0.831,0 1.5,0.669 1.5,1.5 v 11.70703 c 0,0.831 -0.669,1.5 -1.5,1.5 h -20.04101 c -0.831,0 -1.5,-0.669 -1.5,-1.5 v -11.70703 c 0,-0.831 0.669,-1.5 1.5,-1.5 z m 0,25.16406 h 20.04101 c 0.831,0 1.5,0.669 1.5,1.5 v 11.54297 c 0,0.831 -0.669,1.5 -1.5,1.5 h -20.04101 c -0.831,0 -1.5,-0.669 -1.5,-1.5 v -11.54297 c 0,-0.831 0.669,-1.5 1.5,-1.5 z m 0,25.32617 h 20.04101 c 0.831,0 1.5,0.669 1.5,1.5 v 11.54297 c 0,0.831 -0.669,1.5 -1.5,1.5 h -20.04101 c -0.831,0 -1.5,-0.669 -1.5,-1.5 V 350.8457 c 0,-0.831 0.669,-1.5 1.5,-1.5 z m 0,25.16407 h 20.04101 c 0.831,0 1.5,0.669 1.5,1.5 v 11.70507 c 0,0.831 -0.669,1.5 -1.5,1.5 h -20.04101 c -0.831,0 -1.5,-0.669 -1.5,-1.5 v -11.70507 c 0,-0.831 0.669,-1.5 1.5,-1.5 z m 0,25.32617 h 20.04101 c 0.831,0 1.5,0.669 1.5,1.5 v 11.54297 c 0,0.831 -0.669,1.5 -1.5,1.5 h -20.04101 c -0.831,0 -1.5,-0.669 -1.5,-1.5 v -11.54297 c 0,-0.831 0.669,-1.5 1.5,-1.5 z m 0,25.16406 h 20.04101 c 0.831,0 1.5,0.669 1.5,1.5 v 11.37891 c 0,0.831 -0.669,1.5 -1.5,1.5 h -20.04101 c -0.831,0 -1.5,-0.669 -1.5,-1.5 V 426.5 c 0,-0.831 0.669,-1.5 1.5,-1.5 z m 0,25.16406 h 20.04101 c 0.831,0 1.5,0.669 1.5,1.5 v 11.54102 c 0,0.831 -0.669,1.5 -1.5,1.5 h -20.04101 c -0.831,0 -1.5,-0.669 -1.5,-1.5 v -11.54102 c 0,-0.831 0.669,-1.5 1.5,-1.5 z m 0,25.16211 h 20.04101 c 0.831,0 1.5,0.669 1.5,1.5 v 11.54297 c 0,0.831 -0.669,1.5 -1.5,1.5 h -20.04101 c -0.831,0 -1.5,-0.669 -1.5,-1.5 v -11.54297 c 0,-0.831 0.669,-1.5 1.5,-1.5 z" />
    <path
       style="fill:#ffffff"
       d="m 602.45098,334.64052 v 46.56863 c 0,0 0.4902,1.96078 2.28758,2.12418 1.79739,0.1634 124.30169,0.0722 124.30169,0.0722 0,0 2.5387,0.12384 2.60062,-2.35294 0.0619,-2.47678 0.12384,-76.78018 0.12384,-76.78018 z"
       id="path9" />
    <path
       style="fill:#ffffff"
       d="M 602.61307,461.20603 V 408.1407 c 0,0 0.80402,-2.21105 2.91457,-2.31155 2.11055,-0.10051 123.21608,0 123.21608,0 0,0 2.71357,-0.20101 2.81407,2.51256 0.1005,2.71357 0.1005,78.89447 0.1005,78.89447 z"
       id="path10" />
  </g>
  <g
     id="g20"
     style="display:inline;fill:#ffffff">
    <path
       d="m 102.05923,433.47173 c 15.875,0 26.41666,-7.70833 26.41666,-19.16666 0,-14.95833 -12.70833,-17.79166 -22.79166,-19.91666 -6.749996,-1.45833 -12.41666,-2.70833 -12.41666,-7.20833 0,-3.125 3.541665,-5.20833 8.79166,-5.20833 5.25,0 8.75,2.58333 8.75,6.45833 h 15.66666 c 0,-11.37499 -9.75,-18.95832 -24.41666,-18.95832 -14.666658,0 -24.45832,7.12499 -24.45832,17.70832 0,14.04166 12.374994,17.04166 22.41666,19.37499 6.91666,1.625 12.79166,3.04167 12.79166,7.75 0,4 -4.29167,6.66667 -10.75,6.66667 -6.458328,0 -10.791659,-3.625 -10.791659,-9.04167 H 75.60091 c 0,12.875 10.583329,21.54166 26.45832,21.54166 z"
       id="text15"
       style="font-weight:800;font-size:85.3333px;font-family:Sublima;-inkscape-font-specification:'Sublima Ultra-Bold';white-space:pre;fill:#ffffff"
       transform="matrix(1.5373066,0,0,1.5569309,-40.125821,-225.57223)"
       aria-label="S" />
    <path
       d="m 163.55922,433.47173 c 16.41666,0 25.54165,-9.875 27.41665,-24.66666 h -15.66666 c -1.125,7 -4.70833,11.66667 -11.74999,11.66667 -8.375,0 -14,-7.625 -14,-19 0,-11.37499 5.625,-18.99999 14,-18.99999 7.04166,0 10.62499,4.66667 11.74999,11.66666 h 15.66666 c -1.875,-14.79166 -10.99999,-24.66665 -27.41665,-24.66665 -17.75,0 -29.66666,12.83332 -29.66666,31.99998 0,19.16666 11.91666,31.99999 29.66666,31.99999 z"
       id="text14"
       style="font-weight:800;font-size:85.3333px;font-family:Sublima;-inkscape-font-specification:'Sublima Ultra-Bold';white-space:pre;fill:#ffffff"
       transform="matrix(1.5373066,0,0,1.5569309,-40.125821,-225.57223)"
       aria-label="C" />
    <path
       d="m 199.01753,432.1384 h 49.24998 v -13.5 h -33.58332 v -10.83333 h 28.83332 v -12.66666 h -28.83332 v -10.83333 h 32.74999 v -13.49999 h -48.41665 z"
       id="text13"
       style="font-weight:800;font-size:85.3333px;font-family:Sublima;-inkscape-font-specification:'Sublima Ultra-Bold';white-space:pre;fill:#ffffff"
       transform="matrix(1.5373066,0,0,1.5569309,-40.125821,-225.57223)"
       aria-label="E" />
    <path
       d="m 256.8925,432.1384 h 15.20833 v -36.58332 l 22.83332,36.58332 h 15.24999 v -61.33331 h -15.24999 v 36.58332 L 272.10083,370.80509 H 256.8925 Z"
       id="text12"
       style="font-weight:800;font-size:85.3333px;font-family:Sublima;-inkscape-font-specification:'Sublima Ultra-Bold';white-space:pre;fill:#ffffff"
       transform="matrix(1.5373066,0,0,1.5569309,-40.125821,-225.57223)"
       aria-label="N" />
    <path
       d="m 321.18414,432.1384 h 49.24998 v -13.5 H 336.8508 v -10.83333 h 28.83332 V 395.13841 H 336.8508 v -10.83333 h 32.74999 v -13.49999 h -48.41665 z"
       id="text11"
       style="font-weight:800;font-size:85.3333px;font-family:Sublima;-inkscape-font-specification:'Sublima Ultra-Bold';white-space:pre;fill:#ffffff"
       transform="matrix(1.5373066,0,0,1.5569309,-40.125821,-225.57223)"
       aria-label="E" />
    <path
       d="m 93.332159,433.00023 c 10.261211,0 17.128961,-6.1675 17.128961,-15.37836 v -25.12785 h -10.12656 v 25.10092 c 0,3.98599 -2.800959,6.67922 -7.002401,6.67922 -4.17451,0 -6.975472,-2.69323 -6.975472,-6.67922 V 392.49402 H 76.230134 v 25.10092 c 0,9.23779 6.867742,15.40529 17.102025,15.40529 z"
       id="text20"
       style="font-weight:800;font-size:55.1574px;font-family:Sublima;-inkscape-font-specification:'Sublima Ultra-Bold';white-space:pre;fill:#ffffff"
       transform="matrix(2.3733575,0,0,2.3413958,625.33567,-565.51359)"
       aria-label="U" />
    <path
       d="m 116.97873,432.1384 h 9.8303 v -23.64658 l 14.75892,23.64658 h 9.85723 v -39.64438 h -9.85723 v 23.64658 l -14.75892,-23.64658 h -9.8303 z"
       id="text19"
       style="font-weight:800;font-size:55.1574px;font-family:Sublima;-inkscape-font-specification:'Sublima Ultra-Bold';white-space:pre;fill:#ffffff"
       transform="matrix(2.3733575,0,0,2.3413958,625.33567,-565.51359)"
       aria-label="N" />
    <path
       d="m 168.0963,432.1384 h 10.12655 v -30.91831 h 11.76943 v -8.72607 H 156.3538 v 8.72607 h 11.7425 z"
       id="text18"
       style="font-weight:800;font-size:55.1574px;font-family:Sublima;-inkscape-font-specification:'Sublima Ultra-Bold';white-space:pre;fill:#ffffff"
       transform="matrix(2.3733575,0,0,2.3413958,625.33567,-565.51359)"
       aria-label="T" />
    <path
       d="m 194.89395,432.1384 h 31.83401 v -8.72608 H 205.0205 v -7.0024 h 18.63717 v -8.18743 H 205.0205 v -7.0024 h 21.16881 v -8.72607 h -31.29536 z"
       id="text17"
       style="font-weight:800;font-size:55.1574px;font-family:Sublima;-inkscape-font-specification:'Sublima Ultra-Bold';white-space:pre;fill:#ffffff"
       transform="matrix(2.3733575,0,0,2.3413958,625.33567,-565.51359)"
       aria-label="E" />
    <path
       d="m 232.30295,432.1384 h 10.12655 v -14.67812 h 9.34552 c 2.07378,0 3.15108,1.80447 3.47427,4.44383 l 1.13115,10.23429 h 9.88417 l -1.15809,-10.23429 c -0.40399,-3.58199 -1.48128,-5.73658 -3.31268,-7.02933 2.6663,-2.15459 4.25531,-5.60193 4.25531,-9.88416 0,-7.48719 -4.76702,-12.4966 -11.87716,-12.4966 h -21.86904 z m 10.12655,-22.73088 v -8.83381 h 10.20735 c 2.07379,0 3.47427,1.80447 3.47427,4.41691 0,2.63936 -1.40048,4.4169 -3.47427,4.4169 z"
       id="text16"
       style="font-weight:800;font-size:55.1574px;font-family:Sublima;-inkscape-font-specification:'Sublima Ultra-Bold';white-space:pre;fill:#ffffff"
       transform="matrix(2.3733575,0,0,2.3413958,625.33567,-565.51359)"
       aria-label="R" />
  </g>
</svg>
